<?xml version="1.0" standalone="no"?>
<!DOCTYPE svg PUBLIC "-//W3C//DTD SVG 20010904//EN"
 "http://www.w3.org/TR/2001/REC-SVG-20010904/DTD/svg10.dtd">
<svg version="1.0" xmlns="http://www.w3.org/2000/svg"
 width="3545.000000pt" height="3545.000000pt" viewBox="0 0 3545.000000 3545.000000"
 preserveAspectRatio="xMidYMid meet">
<metadata>
Created by potrace 1.14, written by Peter Selinger 2001-2017
</metadata>
<g transform="translate(0.000000,3545.000000) scale(0.100000,-0.100000)"
fill="#000000" stroke="none">
<path d="M8519 35446 c-2 -2 -68 -7 -146 -10 -78 -4 -159 -9 -180 -11 -21 -2
-69 -6 -108 -10 -38 -3 -86 -8 -105 -10 -19 -2 -63 -6 -97 -9 -34 -3 -72 -8
-85 -10 -13 -3 -45 -8 -73 -10 -102 -11 -184 -23 -290 -41 -16 -3 -46 -8 -65
-11 -125 -20 -233 -41 -425 -84 -175 -39 -148 -33 -295 -70 -69 -17 -163 -43
-210 -57 -47 -14 -89 -26 -95 -27 -75 -14 -623 -204 -748 -260 -31 -14 -61
-26 -65 -27 -13 -3 -52 -19 -185 -75 -266 -113 -760 -365 -1003 -512 -24 -15
-76 -47 -116 -71 -59 -36 -211 -133 -298 -191 -254 -168 -658 -478 -881 -675
-343 -303 -746 -711 -911 -921 -12 -15 -33 -39 -47 -53 -36 -39 -236 -291
-329 -416 -45 -60 -86 -114 -90 -120 -9 -12 -85 -121 -135 -192 -86 -122 -367
-573 -367 -587 0 -3 -20 -38 -45 -80 -24 -42 -77 -138 -116 -214 -39 -75 -74
-144 -79 -152 -37 -69 -78 -159 -220 -475 -30 -66 -202 -509 -206 -530 -1 -5
-15 -48 -32 -95 -53 -152 -90 -272 -132 -425 -23 -82 -46 -161 -51 -175 -4
-14 -11 -36 -13 -50 -3 -14 -7 -34 -10 -45 -63 -268 -88 -376 -92 -405 -3 -19
-9 -58 -15 -86 -5 -28 -12 -64 -15 -80 -2 -16 -9 -51 -14 -79 -5 -27 -12 -63
-15 -80 -6 -35 -33 -231 -40 -295 -7 -56 -15 -117 -20 -150 -5 -29 -13 -114
-20 -220 -3 -41 -8 -100 -11 -130 -2 -30 -8 -118 -12 -195 -9 -186 -9 -18433
1 -18600 4 -71 9 -152 12 -180 2 -27 7 -88 10 -135 6 -88 14 -180 20 -216 2
-12 6 -48 10 -80 4 -33 9 -70 11 -84 2 -14 6 -45 9 -70 15 -120 28 -206 50
-325 14 -71 27 -148 30 -170 4 -22 17 -87 31 -145 13 -58 26 -114 28 -126 28
-148 150 -583 227 -812 33 -94 59 -177 59 -182 0 -6 4 -18 9 -28 6 -9 51 -121
100 -249 50 -128 104 -261 120 -295 16 -35 47 -101 68 -148 55 -124 276 -558
323 -634 22 -37 40 -68 40 -70 0 -9 153 -261 248 -409 120 -186 392 -571 422
-597 3 -3 53 -66 112 -140 58 -74 116 -147 129 -161 13 -14 49 -54 79 -89 155
-180 233 -264 440 -470 230 -230 266 -264 405 -385 44 -39 82 -72 85 -75 32
-34 332 -274 490 -392 127 -94 388 -278 396 -278 3 0 33 -19 68 -42 72 -50 62
-43 236 -149 215 -131 347 -205 630 -349 57 -30 231 -113 310 -148 160 -72
254 -112 261 -112 5 0 37 -13 71 -29 35 -15 81 -34 103 -41 22 -7 45 -16 50
-20 6 -4 19 -10 30 -13 11 -3 72 -24 135 -47 324 -117 850 -269 1095 -316 11
-2 52 -11 90 -19 39 -8 84 -17 100 -20 17 -3 91 -16 165 -29 121 -22 242 -41
322 -52 16 -2 45 -6 66 -8 20 -3 57 -8 82 -11 25 -3 63 -7 85 -10 76 -9 130
-14 210 -20 44 -4 96 -8 115 -10 19 -2 100 -8 180 -12 194 -11 18504 -10
18690 0 148 9 168 10 300 21 190 17 345 35 555 67 100 15 134 21 250 43 11 2
40 7 65 11 115 18 545 117 674 155 21 6 46 13 55 15 93 20 530 163 761 249
368 138 882 381 1247 589 361 206 791 498 1118 758 87 69 300 246 325 270 8 8
60 54 115 103 109 98 518 505 603 600 29 33 70 80 92 105 21 25 48 57 60 71
166 192 331 397 429 534 31 43 73 102 93 130 55 76 216 316 295 441 241 379
548 982 698 1370 25 66 51 131 56 145 6 14 10 26 10 28 -1 1 5 15 13 30 8 15
33 83 56 152 23 69 46 134 50 145 57 134 231 783 285 1060 6 31 30 167 39 220
3 17 7 42 10 58 10 47 25 140 31 185 9 70 14 111 30 237 22 167 23 177 30 295
4 58 9 113 10 122 2 9 7 83 12 165 10 190 11 18462 0 18648 -4 77 -10 156 -12
175 -2 19 -7 85 -10 145 -4 61 -9 119 -11 130 -2 10 -6 49 -10 85 -3 36 -7 67
-9 70 -2 3 -6 37 -10 75 -4 39 -9 79 -11 89 -2 11 -6 41 -9 68 -3 27 -19 124
-36 216 -16 92 -32 178 -34 192 -3 14 -7 36 -10 50 -2 14 -7 36 -9 50 -5 28
-51 224 -66 285 -10 39 -16 62 -26 115 -3 14 -16 61 -29 105 -37 126 -63 216
-79 275 -40 149 -198 587 -301 835 -124 299 -321 697 -479 968 -47 82 -86 150
-86 153 0 10 -262 412 -334 512 -44 63 -88 124 -96 136 -33 49 -110 155 -130
177 -11 13 -57 72 -103 131 -104 133 -143 180 -237 287 -41 47 -79 91 -85 98
-107 125 -479 505 -640 653 -256 236 -674 570 -940 751 -44 30 -84 58 -90 62
-5 5 -46 31 -90 60 -44 28 -113 73 -153 99 -41 26 -75 48 -77 48 -2 0 -40 23
-84 50 -44 28 -85 50 -91 50 -5 0 -10 5 -10 10 0 6 -4 10 -8 10 -4 0 -78 39
-162 86 -153 85 -504 262 -630 318 -141 62 -349 150 -420 177 -41 15 -100 37
-130 49 -169 65 -523 181 -670 221 -41 11 -100 27 -130 36 -101 28 -392 98
-451 108 -19 3 -50 10 -69 15 -19 5 -48 11 -65 14 -16 2 -55 9 -85 16 -30 6
-71 13 -90 16 -19 3 -57 9 -85 14 -45 9 -116 19 -240 35 -22 3 -51 8 -65 10
-14 3 -50 7 -80 10 -30 3 -66 8 -80 10 -14 2 -57 6 -95 10 -39 3 -84 8 -100
10 -17 2 -79 6 -140 10 -60 3 -123 9 -140 12 -32 7 -18579 16 -18586 9z"/>
</g>
</svg>
